<svg xmlns="http://www.w3.org/2000/svg" viewBox="0 0 71.32 58.09"><defs><style>.cls-1{fill:#fff;stroke:#000;stroke-miterlimit:10;stroke-width:2px;}</style></defs><title>COCO</title><g id="Layer_2" data-name="Layer 2"><g id="Layer_1-2" data-name="Layer 1"><path class="cls-1" d="M54.56,42.44c-1.25,9.5-24.4,20.37-39.84,11.15s-16.9-34.72-9.1-40.36c6.3-4.57,19.4,3.35,28.49,8.85C43.36,27.67,55.54,35,54.56,42.44Z"/><ellipse class="cls-1" cx="30.09" cy="27.83" rx="11" ry="28.5" transform="translate(-9.23 39.41) rotate(-59.18)"/><path class="cls-1" d="M55.67,1.65C65.17,2.9,76,26.05,66.82,41.49s-34.72,16.9-40.36,9.1c-4.57-6.3,3.35-19.4,8.85-28.49C40.9,12.85,48.27.67,55.67,1.65Z"/><ellipse class="cls-1" cx="28.06" cy="26.69" rx="8.02" ry="20.77" transform="translate(-9.23 37.11) rotate(-59.18)"/><ellipse class="cls-1" cx="41.06" cy="26.12" rx="28.5" ry="11" transform="translate(-2.41 48) rotate(-59.18)"/><ellipse class="cls-1" cx="41.06" cy="25.69" rx="20.77" ry="8.02" transform="matrix(0.51, -0.86, 0.86, 0.51, -2.04, 47.78)"/><path d="M6.71,29.1A13.12,13.12,0,0,0,10,37.35c.43.48,1.13-.23.71-.71a12,12,0,0,1-3-7.54c0-.64-1-.65-1,0Z"/><path d="M13.64,45.61c0-.17.11-.34.17-.5l0-.07a1,1,0,0,1,0-.1L14,44.7a6.5,6.5,0,0,1,.55-.87,6.74,6.74,0,0,1,.69-.74,5.58,5.58,0,0,1,.81-.58.5.5,0,0,0-.5-.87,6.38,6.38,0,0,0-2.86,3.7.5.5,0,1,0,1,.27Z"/><path d="M16.27,46.89a5.56,5.56,0,0,1,4.35,3.28.53.53,0,0,0,.62.35.52.52,0,0,0,.35-.62,6.63,6.63,0,0,0-5.32-4,.5.5,0,0,0-.5.5.51.51,0,0,0,.5.5Z"/><path d="M20.24,37.08a18.85,18.85,0,0,1-8.7-2c-.57-.29-1.08.57-.5.86a19.83,19.83,0,0,0,9.2,2.1.5.5,0,0,0,0-1Z"/><path d="M1.62,21.82l1.69,7.91c.14.63,1.1.36,1-.26L2.59,21.55c-.14-.63-1.1-.36-1,.27Z"/><path d="M5.32,41H9.79a.5.5,0,0,0,0-1H5.32a.5.5,0,0,0,0,1Z"/><path d="M27.7,54.46H22.23a.5.5,0,0,0,0,1H27.7a.5.5,0,0,0,0-1Z"/><path d="M20.77,43.25l-1.93,2.52a.51.51,0,0,0,.18.69.51.51,0,0,0,.68-.18l1.94-2.53a.49.49,0,0,0-.18-.68.52.52,0,0,0-.69.18Z"/><path d="M46.59,43.52h3a.5.5,0,0,0,0-1h-3a.51.51,0,0,0-.5.5.51.51,0,0,0,.5.5Z"/><path d="M50.41,36.73a12.58,12.58,0,0,1,6.79-4.56.5.5,0,0,0-.27-1,13.64,13.64,0,0,0-7.39,5,.5.5,0,0,0,.87.5Z"/><path d="M58,20.14V15.67a.5.5,0,0,0-1,0v4.47a.5.5,0,0,0,1,0Z"/><path d="M62.91,15.17a20.75,20.75,0,0,0,3.82,11.56c.37.52,1.24,0,.87-.5a19.73,19.73,0,0,1-3.69-11.06.5.5,0,0,0-1,0Z"/><path d="M59.57,29.1a50,50,0,0,0,.33,10.59c.09.64,1.05.37,1-.26a48.23,48.23,0,0,1-.29-10.33c0-.64-1-.64-1,0Z"/><path d="M55.54,40.53v3a.5.5,0,0,0,1,0v-3A.51.51,0,0,0,56,40a.51.51,0,0,0-.5.5Z"/><path d="M61.43,38.66l1.18-5.93c.12-.63-.84-.89-1-.26L60.47,38.4c-.13.63.84.9,1,.26Z"/><path d="M61.07,26.11a16.1,16.1,0,0,1,.28-5.87c.15-.62-.81-.89-1-.26a16.63,16.63,0,0,0-.32,6.13.5.5,0,1,0,1,0Z"/><path d="M61.65,10.56a12.25,12.25,0,0,1,2.87,4.24.5.5,0,0,0,1-.26,13.39,13.39,0,0,0-3.12-4.69c-.46-.45-1.17.26-.71.71Z"/><path d="M49.07,47.89l-8.93,1.18c-.63.08-.64,1.08,0,1l8.93-1.18c.63-.09.63-1.09,0-1Z"/><path d="M35.65,51.48h5a.5.5,0,0,0,0-1h-5a.5.5,0,0,0,0,1Z"/><path d="M50.17,50.3A18.34,18.34,0,0,0,47,45.12a.5.5,0,1,0-.7.71,17.16,17.16,0,0,1,2.93,4.74.52.52,0,0,0,.61.35.51.51,0,0,0,.35-.62Z"/><path d="M66.72,34.66a6.36,6.36,0,0,1-1.67-1.4,5.57,5.57,0,0,1-.6-.85,3.67,3.67,0,0,1-.26-.48,3.33,3.33,0,0,1-.21-.48.53.53,0,0,0-.62-.35.52.52,0,0,0-.35.62,7.48,7.48,0,0,0,3.21,3.8.5.5,0,0,0,.5-.86Z"/><path d="M57.19,43.31l-1.57,2.94a.51.51,0,0,0,.18.69.5.5,0,0,0,.68-.18l1.58-2.94a.5.5,0,0,0-.87-.51Z"/></g></g></svg>