<svg xmlns="http://www.w3.org/2000/svg" viewBox="0 0 137.33 147.04"><defs><style>.cls-1{fill:#fff;}</style></defs><title>drop_2</title><g id="Layer_2" data-name="Layer 2"><g id="Layer_1-2" data-name="Layer 1"><path class="cls-1" d="M47.47,146.54a42.14,42.14,0,0,1-13-2C20,139.88,11.91,127.78,7.64,118.45A82.57,82.57,0,0,1,.55,82.51C2.36,38.21,51.26,2.73,93.78.6,95.16.54,96.58.5,98,.5,115.66.5,135.45,5.91,136.77,14c.69,4.24-4.33,7.19-11.29,11.26-8.45,4.94-20,11.71-27,24.75-7.34,13.7-5.2,25.86-3.14,37.62,2,11.58,4,22.52-3,34.33C83.75,136.42,65.31,146.54,47.47,146.54Z"/><path d="M98,1c19.58,0,37.11,6,38.27,13.05.64,3.9-4.27,6.77-11.06,10.74-8.49,5-20.13,11.78-27.18,24.94-7.42,13.86-5.27,26.1-3.19,38,2,11.48,3.92,22.33-3,34C83.41,136,65.15,146,47.47,146a41.77,41.77,0,0,1-12.81-1.95c-14.29-4.63-22.34-16.61-26.56-25.85a82,82,0,0,1-7-35.71c.86-20.85,12.12-41.06,31.73-56.92C50.47,11.29,73.29,2.13,93.81,1.1,95.17,1,96.59,1,98,1h0m0-1c-1.43,0-2.85,0-4.25.1C52.52,2.17,1.93,36.51.06,82.49-.82,103.9,8.51,136.68,34.36,145a42.72,42.72,0,0,0,13.11,2c18,0,36.72-10.38,45.28-24.86C107,98,84.52,77.09,98.92,50.2c12.64-23.59,40-26.2,38.34-36.32C135.9,5.57,116.19,0,98,0Z"/><path d="M29.9,74.56h0A3.31,3.31,0,0,1,31,74.7a15.2,15.2,0,0,1-1.64,2.36,33.18,33.18,0,0,0-7.09,14.26c-1.45,7.16.14,13.07,1.09,16.6a24.75,24.75,0,0,1,.57,2.42c-1.21-.42-4.13-2.58-7-6.33-5.93-7.7-5.54-13.67-4.78-16.54C14.35,79.12,25,74.56,29.9,74.56m0-1c-4.8,0-16.3,4.46-18.74,13.66-3.08,11.62,10,24.19,13.12,24.19a.82.82,0,0,0,.28,0c1.79-.67-3.58-8.67-1.32-19.85s10.09-15.82,8.6-17.45a2.75,2.75,0,0,0-1.94-.51Z"/><path d="M80.29,77.37h.06a2.66,2.66,0,0,1,.13.73,8.29,8.29,0,0,0,.66,2.67A6.93,6.93,0,0,0,83,83.22a3.54,3.54,0,0,1,1.28,1.87c.31,1.18.18,2.76-.68,3.35a1.72,1.72,0,0,1-1,.27A4.09,4.09,0,0,1,81,88.36a6.76,6.76,0,0,1-3.59-7.48c.55-2,2.2-3.51,2.85-3.51m0-.5c-1,0-2.77,1.79-3.34,3.87a7.25,7.25,0,0,0,3.88,8.08,4.84,4.84,0,0,0,1.76.39,2.2,2.2,0,0,0,1.27-.36c1.11-.76,1.22-2.61.88-3.89-.54-2-2.07-2-3.14-4.39-.92-2-.37-3.4-1.08-3.66a.59.59,0,0,0-.23,0Z"/><path d="M64.79,59.07l0,.5a3.53,3.53,0,0,1,.46.93,15.06,15.06,0,0,0,1.39,2.8,13.36,13.36,0,0,0,1.87,2.35,3.92,3.92,0,0,1,1.21,1.9c.31,1.18.18,2.76-.68,3.35a1.65,1.65,0,0,1-1,.28,4.23,4.23,0,0,1-1.57-.36c-2.42-1-4-4.4-3.57-7.54.28-2,1.36-3.71,1.86-3.71v-.5m0,0c-1,0-2.07,2.16-2.36,4.14-.45,3.17,1.11,6.9,3.88,8.07a4.73,4.73,0,0,0,1.76.4,2.2,2.2,0,0,0,1.27-.36c1.11-.77,1.22-2.62.88-3.9-.48-1.8-1.55-1.88-3.14-4.39s-1.47-3.9-2.25-4Z"/><path d="M80.15,40.91a4.31,4.31,0,0,1-.33,1.16,20.75,20.75,0,0,0-1.29,6.56A4.72,4.72,0,0,1,78,51.11a3.61,3.61,0,0,1-2.6,1.9,1.14,1.14,0,0,1-.26,0c-1-.18-1.53-1.37-1.74-1.87-1-2.52.79-5.86,2.89-7.89,1.29-1.26,3-2.32,3.79-2.32h.1s0,0,0,0m-.12-.5c-1,0-2.85,1.21-4.14,2.46-2,1.91-4.18,5.5-3,8.43.12.3.78,1.94,2.11,2.18a2.07,2.07,0,0,0,.35,0,4.07,4.07,0,0,0,3-2.15c.9-1.54.43-2.39.91-5.32.57-3.56,1.8-5,1.2-5.48a.67.67,0,0,0-.46-.15Z"/><path d="M98.54,21.47h0a5.64,5.64,0,0,1,1.76.27,5.92,5.92,0,0,1,3.23,2.62.76.76,0,0,1,.1.48,2.71,2.71,0,0,1-.74.1,8.11,8.11,0,0,0-2.7.51,6.89,6.89,0,0,0-2.54,1.7,3.65,3.65,0,0,1-1.94,1.17,4.83,4.83,0,0,1-.94.09,2.72,2.72,0,0,1-2.37-1,2.92,2.92,0,0,1,.23-2.54,6.76,6.76,0,0,1,5.91-3.44m0-.5a7.31,7.31,0,0,0-6.36,3.72c-.14.28-.92,1.87-.21,3a3.23,3.23,0,0,0,2.8,1.19,5.73,5.73,0,0,0,1-.1c2.07-.43,2.12-2,4.56-2.89,2.1-.81,3.41-.19,3.71-.88.4-.9-1.41-3-3.63-3.77a5.91,5.91,0,0,0-1.91-.3Z"/></g></g></svg>