<svg xmlns="http://www.w3.org/2000/svg" viewBox="0 0 137.33 147.04"><defs><style>.cls-1{fill:#fff;}</style></defs><title>drop_1_1</title><g id="Layer_2" data-name="Layer 2"><g id="Layer_1-2" data-name="Layer 1"><path class="cls-1" d="M47.47,146.54a42.14,42.14,0,0,1-13-2C20,139.88,11.91,127.78,7.64,118.45A82.57,82.57,0,0,1,.55,82.51C2.36,38.21,51.26,2.73,93.78.6,95.16.54,96.58.5,98,.5,115.66.5,135.45,5.91,136.77,14c.69,4.24-4.33,7.19-11.29,11.26-8.45,4.94-20,11.71-27,24.75-7.34,13.7-5.2,25.86-3.14,37.62,2,11.58,4,22.52-3,34.33C83.75,136.42,65.31,146.54,47.47,146.54Z"/><path d="M98,1c19.58,0,37.11,6,38.27,13.05.64,3.9-4.27,6.77-11.06,10.74-8.49,5-20.13,11.78-27.18,24.94-7.42,13.86-5.27,26.1-3.19,38,2,11.48,3.92,22.33-3,34C83.41,136,65.15,146,47.47,146a41.77,41.77,0,0,1-12.81-1.95c-14.29-4.63-22.34-16.61-26.56-25.85a82,82,0,0,1-7-35.71c.86-20.85,12.12-41.06,31.73-56.92C50.47,11.29,73.29,2.13,93.81,1.1,95.17,1,96.59,1,98,1h0m0-1c-1.43,0-2.85,0-4.25.1C52.52,2.17,1.93,36.51.06,82.49-.82,103.9,8.51,136.68,34.36,145a42.72,42.72,0,0,0,13.11,2c18,0,36.72-10.38,45.28-24.86C107,98,84.52,77.09,98.92,50.2c12.64-23.59,40-26.2,38.34-36.32C135.9,5.57,116.19,0,98,0Z"/><path d="M29.9,74.56h0A3.31,3.31,0,0,1,31,74.7a15.2,15.2,0,0,1-1.64,2.36,33.18,33.18,0,0,0-7.09,14.26c-1.45,7.16.14,13.07,1.09,16.6a24.75,24.75,0,0,1,.57,2.42c-1.21-.42-4.13-2.58-7-6.33-5.93-7.7-5.54-13.67-4.78-16.54C14.35,79.12,25,74.56,29.9,74.56m0-1c-4.8,0-16.3,4.46-18.74,13.66-3.08,11.62,10,24.19,13.12,24.19a.82.82,0,0,0,.28,0c1.79-.67-3.58-8.67-1.32-19.85s10.09-15.82,8.6-17.45a2.75,2.75,0,0,0-1.94-.51Z"/><path d="M94.37,30.56h0c.82,0,1.23.21,1.29.34a2.61,2.61,0,0,1-.39.63,8,8,0,0,0-1.33,2.4,6.91,6.91,0,0,0-.31,3,3.66,3.66,0,0,1-.34,2.24,3.52,3.52,0,0,1-2.58,2h-.2c-1-.14-1.59-1.3-1.81-1.8a6.75,6.75,0,0,1,2.45-7.92,6.41,6.41,0,0,1,3.22-.93m0-.5a6.85,6.85,0,0,0-3.48,1,7.24,7.24,0,0,0-2.65,8.56c.13.28.86,1.89,2.2,2.09h.27c1.24,0,2.44-1.18,3-2.27,1-1.87-.15-2.89.68-5.36.72-2.13,2-2.74,1.7-3.42-.2-.39-.88-.61-1.74-.61Z"/><path d="M87.06,15.29h0a.58.58,0,0,1,.42.11,3.29,3.29,0,0,1-.3,1,15.8,15.8,0,0,0-.88,3,13.84,13.84,0,0,0-.23,3,3.94,3.94,0,0,1-.4,2.22,3.52,3.52,0,0,1-2.58,2h-.2c-1-.14-1.59-1.3-1.81-1.8-1.09-2.4,0-6,2.5-8a6.72,6.72,0,0,1,3.48-1.55m0-.5a7.23,7.23,0,0,0-3.8,1.66c-2.49,2-3.88,5.82-2.64,8.56.13.28.86,1.89,2.2,2.08a1.23,1.23,0,0,0,.27,0c1.24,0,2.44-1.19,3-2.27.88-1.66.14-2.44.68-5.36s1.58-3.87,1-4.43a1,1,0,0,0-.77-.26Z"/><path d="M103.82,4.1a4.31,4.31,0,0,1-.33,1.16,21.68,21.68,0,0,0-1.06,3.88,21.08,21.08,0,0,0-.27,2.67,4.66,4.66,0,0,1-.6,2.48A3.61,3.61,0,0,1,99,16.17a1.23,1.23,0,0,1-.27,0c-1-.18-1.52-1.38-1.72-1.88-1-2.52.82-5.85,2.93-7.88,1.29-1.24,3-2.29,3.8-2.29h.1s0,0,0,0m-.12-.5c-1,0-2.86,1.19-4.15,2.43-2,1.91-4.21,5.47-3,8.42.12.29.77,1.94,2.1,2.19l.36,0a4,4,0,0,0,3-2.13c.92-1.54.45-2.39.94-5.31.59-3.56,1.83-5,1.23-5.49a.72.72,0,0,0-.46-.14Z"/></g></g></svg>