<svg xmlns="http://www.w3.org/2000/svg" viewBox="0 0 68.06 72.87"><defs><style>.cls-1{fill:#fff;}</style></defs><title>DROP_2</title><g id="Layer_2" data-name="Layer 2"><g id="Layer_1-2" data-name="Layer 1"><path class="cls-1" d="M23.53,72.37a20.68,20.68,0,0,1-6.35-1C4.31,67.24.14,50.49.53,40.9c.89-21.82,25-39.3,46-40.35.69,0,1.38-.05,2.08-.05,9.71,0,18.39,3,19,6.46.32,1.93-2.11,3.35-5.47,5.32-4.21,2.47-10,5.84-13.47,12.36C44.91,31.51,46,37.58,47,43.45c1,5.7,2,11.07-1.47,16.85C41.33,67.41,32.29,72.37,23.53,72.37Z"/><path d="M48.58,0V1C57.72,1,66.52,3.88,67,7c.25,1.52-1.72,2.76-5.23,4.81-4.27,2.5-10.1,5.91-13.66,12.56-3.77,7-2.69,13.18-1.64,19.13,1,5.6,1.91,10.89-1.41,16.5-4.11,7-13,11.83-21.57,11.83a20,20,0,0,1-6.19-.94C4.73,66.85.64,50.36,1,40.92,1.91,19.36,25.77,2.09,46.52,1.05c.67,0,1.36-.05,2-.05V0m0,0c-.7,0-1.41,0-2.1.05C26,1.08,1,18.1,0,40.88c-.44,10.61,4.19,26.86,17,31a21,21,0,0,0,6.5,1c8.94,0,18.19-5.14,22.44-12.32C53,48.58,41.89,38.21,49,24.88c6.26-11.69,19.82-13,19-18C67.35,2.76,57.59,0,48.57,0Z"/><path d="M11.52,45.36c-1.12,5.54,1.54,9.5.65,9.83-1.21.46-8.22-6-6.64-12,1.45-5.45,9.3-7.54,10.25-6.52C16.52,37.52,12.63,39.85,11.52,45.36Z"/></g></g></svg>