<svg xmlns="http://www.w3.org/2000/svg" viewBox="0 0 249.36 207.02"><defs><style>.cls-1,.cls-3{fill:none;}.cls-1{stroke:#fff;stroke-linecap:round;stroke-linejoin:round;}.cls-1,.cls-3,.cls-5{stroke-width:2px;}.cls-2,.cls-5{fill:#fff;}.cls-3,.cls-5{stroke:#000;stroke-miterlimit:10;}.cls-4{fill:#fcfcfc;}</style></defs><title>jug </title><g id="Layer_2" data-name="Layer 2"><g id="Layer_1-2" data-name="Layer 1"><path class="cls-1" d="M218.36,123.52a152.1,152.1,0,0,1-3,60.5q-50.12-1-102-1-51.35,0-101,1a143.77,143.77,0,0,1,31-134q35.08-.26,71,0,36.44.24,72,1A153.66,153.66,0,0,1,218.36,123.52Z"/><path class="cls-2" d="M210.36,121a126.8,126.8,0,0,1,.55,39.73A122.27,122.27,0,0,1,207.05,178q-45.65-.68-92.91-.68-46.77,0-92,.68a163,163,0,0,1-4.67-30.21c-.45-7.63-.92-16.47.89-27.79a107.93,107.93,0,0,1,9-29q43.11,1,88,1,43.85,0,86-1A128.62,128.62,0,0,1,210.36,121Z"/><path class="cls-3" d="M204.62,123.47a96.88,96.88,0,0,1,.52,33.72,94.65,94.65,0,0,1-3.64,14.65q-43-.57-87.6-.57-44.1,0-86.74.57a125,125,0,0,1-4.41-25.63c-.42-6.47-.87-14,.84-23.59A84.71,84.71,0,0,1,32.08,98q40.64.84,83,.84,41.34,0,81.09-.84A101.54,101.54,0,0,1,204.62,123.47Z"/><path class="cls-4" d="M187.36,25h-152a72.39,72.39,0,0,1,16-14C68.45.06,85-.09,111.36,0c28.26.11,47.6.54,65,14A61.38,61.38,0,0,1,187.36,25Z"/><path class="cls-2" d="M186.36,47h-146a9,9,0,0,1-9-9V36a23.72,23.72,0,0,0-12-9h167a9,9,0,0,1,9,9v2A9,9,0,0,1,186.36,47Z"/><path class="cls-2" d="M214.89,207H12.48C5.61,207,0,202.8,0,197.65v-2.08a10.73,10.73,0,0,1,4.36-6.89,13.73,13.73,0,0,1,8.12-2.48H214.89c6.86,0,12.47,4.21,12.47,9.37v2.08C227.36,202.8,221.75,207,214.89,207Z"/><path class="cls-5" d="M211.35,204h-195c-6.61,0-12-3-12-6.75v-1.5c.13-.58.76-3.09,4.21-5A16.5,16.5,0,0,1,16.38,189h195c6.61,0,12,3,12,6.75v1.5C223.36,201,218,204,211.35,204Z"/><path class="cls-2" d="M241.86,19h-56.5a42.65,42.65,0,0,0-7-7,44,44,0,0,0-16-8h79.5c2.72,0,7.5,3.82,7.5,7.5C249.36,15.71,242.76,18.63,241.86,19Z"/><rect class="cls-2" x="181.86" y="57.52" width="120" height="15" rx="7.5" transform="translate(306.88 -176.85) rotate(90)"/><path d="M75,13.42c-.25.94-5.13-1-10.78,1.77-2.06,1-2.32,1.71-6,3.62-5.45,2.83-6.64,2.19-7,1.9-1-.77-.89-2.56-.84-3.05.47-4.19,6.14-7.65,11.22-8.53C68.74,7.89,75.21,12.43,75,13.42Z"/></g></g></svg>