<svg xmlns="http://www.w3.org/2000/svg" viewBox="0 0 174.49 237.77"><defs><style>.cls-1{fill:#fff;}.cls-1,.cls-2{stroke:#000;stroke-miterlimit:10;}.cls-2{fill:none;}</style></defs><title>juggie</title><g id="Layer_2" data-name="Layer 2"><g id="Layer_1-2" data-name="Layer 1"><path class="cls-1" d="M16.5,236.77l17-66,4-4v-5h-3v-21l-4-5a56.83,56.83,0,0,0-1-25c-6.13-22.45-24.56-33.5-29-36v-9l15-12,27-5,25-13v-14l-3-7c0-6-3-9,3-11s9-5,16-2,8,3,8,9a17.94,17.94,0,0,1-3,10v14L107,47.27l26.5,2.5,3,13a14.58,14.58,0,0,0,6,3,6.42,6.42,0,0,0,3,0s1-.48,2-1c2.42-1.3-2.82-11.33,0-15,2.13-2.78,8.92-2,13.5.5,6.79,3.68,8.84,11.14,11,19,1.45,5.29,3.65,13.71,0,22a23.56,23.56,0,0,1-3,5c-4.27,5.59-9.78,20.69-16,60l-7,3h-3l-10-10v-8l9-16v-27a22.59,22.59,0,0,0,9-9c1.37-2.69,1.24-4.13,1-5-.69-2.52-3.26-3.67-4-4-.33-.15-4.06-1.76-7,0-3.19,1.91-2,5.7-5,8-2.74,2.09-6.1.76-8,1-4.72.58-9.52,11.9-12,52l-4,4v16h-5v6l6,4q9.5,33,19,66Z"/><line class="cls-2" x1="38" y1="166.27" x2="107" y2="166.27"/><line class="cls-2" x1="37.99" y1="162.27" x2="107.01" y2="162.27"/><line class="cls-2" x1="44" y1="237.27" x2="54" y2="166.27"/><line class="cls-2" x1="100" y1="237.27" x2="90" y2="166.27"/><line class="cls-2" x1="54" y1="166.27" x2="43" y2="48.27"/><line class="cls-2" x1="90" y1="166.27" x2="103" y2="44.27"/></g></g></svg>