<svg xmlns="http://www.w3.org/2000/svg" viewBox="0 0 53.26 72.5"><defs><style>.cls-1{fill:#fff;}.cls-1,.cls-2{stroke:#000;stroke-miterlimit:10;stroke-width:0.5px;}.cls-2{fill:none;}</style></defs><title>juggie_4</title><g id="Layer_2" data-name="Layer 2"><g id="Layer_1-2" data-name="Layer 1"><path class="cls-1" d="M5.12,72.1,10.29,52l1.21-1.22V49.29l-.91-6.39L9.37,41.38a17.33,17.33,0,0,0-.3-7.6,18.69,18.69,0,0,0-8.82-11V20.1l4.56-3.65L13,14.93,20.62,11V6.72l-.91-2.13c0-1.83-.91-2.74.91-3.35s2.74-1.52,4.87-.6,2.43.91,2.43,2.73a5.44,5.44,0,0,1-.91,3v4.26l5.63,3.8,8,.76.92,4a4.47,4.47,0,0,0,1.82.91,2,2,0,0,0,.91,0s.32-.15.61-.31c.74-.39-.85-3.44,0-4.56.65-.84,2.71-.6,4.11.15,2.06,1.12,2.69,3.39,3.34,5.78.44,1.61,1.11,4.17,0,6.69a7.22,7.22,0,0,1-.91,1.52c-1.3,1.7-3,6.3-4.87,18.25l-2.12.91h-.92l-.3-10.34s2-9.58,2.74-10.95a2.07,2.07,0,0,0,.3-1.52,2.06,2.06,0,0,0-1.22-1.21,2.47,2.47,0,0,0-2.12,0c-1,.58-.61,1.73-1.53,2.43s-1.85.23-2.43.3c-1.43.18-2.89,3.62-3.65,15.82l-1.21,1.21c0,.09-.37,1.31-.74,2.5s-.75,2.37-.78,2.37V51l1.82,1.22q2.9,10,5.78,20.07Z"/><line class="cls-2" x1="11.81" y1="50.66" x2="32.79" y2="50.66"/><line class="cls-2" x1="13.48" y1="72.25" x2="16.52" y2="50.66"/><line class="cls-2" x1="30.51" y1="72.25" x2="27.47" y2="50.66"/><line class="cls-2" x1="16.52" y1="50.66" x2="13.17" y2="14.78"/><line class="cls-2" x1="27.47" y1="50.66" x2="31.42" y2="13.56"/></g></g></svg>