<svg xmlns="http://www.w3.org/2000/svg" viewBox="0 0 101.28 101.24"><defs><style>.cls-1{fill:#fff;stroke-miterlimit:10;}.cls-1,.cls-2{stroke:#000;stroke-width:2px;}.cls-2{fill:none;stroke-linecap:round;stroke-linejoin:round;}</style></defs><title>mindal</title><g id="Layer_2" data-name="Layer 2"><g id="Layer_1-2" data-name="Layer 1"><path class="cls-1" d="M70.84,74.29c23.14-22,36.6-59.35,25.46-70C85.53-5.91,52.05,9,31.84,28.29,9.7,49.42-6.26,85.07,4.37,96.25,14.69,107.11,49.62,94.48,70.84,74.29Z"/><path class="cls-2" d="M12.84,77.29a221.47,221.47,0,0,1,61-66"/><path class="cls-2" d="M25.84,80.29a115.08,115.08,0,0,0,44-34,114.11,114.11,0,0,0,19-36"/><path class="cls-2" d="M10.39,91A267.14,267.14,0,0,1,66.88,33.35"/><path class="cls-2" d="M60,71.45A99.27,99.27,0,0,0,83.4,44a98.52,98.52,0,0,0,10.35-25.8"/></g></g></svg>